# File created by Blade
# Date/Time:  Tue Apr 07 21:25:57 2015
# Frame Rate: 120.000 fps
#------------------------------------------------------
:FULLY-SPECIFIED
:DEGREES
588
root 2.938016 43.649618 5.499359 -14.591040 -41.205382 45.512450
Spine -11.455630 -37.479292 -21.034414
Head 23.952884 -7.865740 -8.184805
LeftShoulder -21.387271 37.197657 22.006583
LeftArm 56.728506 -61.062202 -71.263745
LeftForeArm 7.922837 -0.000000 -3.865710
LeftHand 15.893643 0.000000 24.206007
LeftHandThumb1 -26.253704 0.000000 33.147579
RightShoulder -18.049174 -2.290366 -41.762072
RightArm -15.456974 31.940158 26.251315
RightForeArm -8.425949 -0.000000 16.343268
RightHand 16.683575 -0.000000 -22.157232
RightHandThumb1 -24.326973 -0.000000 -32.862282
LeftUpLeg 12.046595 6.825417 29.701215
LeftLeg 17.263528 -0.000000 -0.000000
LeftFoot 30.556717 26.297734 -9.163774
LeftToeBase 19.536025 -0.000000 -0.000000
RightUpLeg -43.530044 -37.511012 -24.437469
RightLeg 3.653403 -0.000000 -0.000000
RightFoot 46.845482 -23.415493 -6.841384
RightToeBase 15.842724 -0.000000 -0.000000
589
root 2.584352 43.107140 5.482469 -14.728956 -41.214086 44.553801
Spine -10.776807 -36.623344 -21.356525
Head 24.509122 -8.234638 -7.730810
LeftShoulder -21.232934 37.891107 22.042935
LeftArm 54.486055 -60.328113 -70.755775
LeftForeArm 7.441131 -0.000000 -3.784607
LeftHand 15.832613 -0.000000 24.365967
LeftHandThumb1 -26.253704 0.000000 33.147579
RightShoulder -18.165808 -2.564608 -41.590280
RightArm -15.788665 32.822057 25.899759
RightForeArm -8.491160 -0.000000 16.988021
RightHand 16.877523 -0.000000 -22.953190
RightHandThumb1 -24.326973 -0.000000 -32.862282
LeftUpLeg 11.867310 6.536458 29.658259
LeftLeg 17.347253 -0.000000 -0.000000
LeftFoot 30.459443 26.321015 -9.124277
LeftToeBase 18.609769 -0.000000 -0.000000
RightUpLeg -40.647012 -36.881172 -23.353462
RightLeg 4.066039 -0.000000 -0.000000
RightFoot 46.711461 -23.879722 -6.032095
RightToeBase 15.302280 -0.000000 -0.000000
590
root 2.241160 42.528749 5.459970 -14.880265 -41.338834 43.710751
Spine -10.170827 -35.669526 -21.695587
Head 24.890210 -8.628259 -7.119405
LeftShoulder -21.470886 38.700177 21.790726
LeftArm 53.253399 -59.595132 -70.652679
LeftForeArm 7.325055 -0.000000 -4.097921
LeftHand 15.804123 -0.000000 24.024821
LeftHandThumb1 -26.253704 0.000000 33.147579
RightShoulder -18.181220 -2.727405 -41.279542
RightArm -16.004240 33.553971 25.349651
RightForeArm -8.332632 -0.000000 17.240343
RightHand 17.202991 -0.000000 -23.154286
RightHandThumb1 -24.326973 -0.000000 -32.862282
LeftUpLeg 11.700659 6.141498 29.522612
LeftLeg 17.381674 -0.000000 -0.000000
LeftFoot 30.500478 26.274102 -9.190518
LeftToeBase 17.704816 -0.000000 -0.000000
RightUpLeg -38.095414 -36.218904 -22.209092
RightLeg 4.681136 -0.000000 -0.000000
RightFoot 46.680075 -23.968120 -5.505505
RightToeBase 14.774363 -0.000000 -0.000000
591
root 1.907344 41.919146 5.446427 -15.128750 -41.510277 43.049510
Spine -9.632837 -34.614801 -22.047495
Head 25.179919 -9.216698 -6.641417
LeftShoulder -21.972693 39.759372 21.217887
LeftArm 52.393945 -58.653372 -70.534325
LeftForeArm 6.525122 -0.000000 -4.287638
LeftHand 15.174333 -0.000000 23.982494
LeftHandThumb1 -26.253704 0.000000 33.147579
RightShoulder -18.175570 -2.736281 -41.011749
RightArm -16.445460 34.507240 24.543601
RightForeArm -8.233366 0.000000 17.653170
RightHand 17.160390 0.000000 -23.502150
RightHandThumb1 -24.326973 -0.000000 -32.862282
LeftUpLeg 11.623511 5.741182 29.264516
LeftLeg 17.209227 -0.000000 -0.000000
LeftFoot 30.637529 26.277433 -9.528307
LeftToeBase 16.935962 -0.000000 -0.000000
RightUpLeg -35.630523 -35.470633 -21.267919
RightLeg 5.310633 -0.000000 -0.000000
RightFoot 46.547025 -24.102460 -4.871006
RightToeBase 14.643471 -0.000000 -0.000000
592
root 1.583668 41.278399 5.432813 -15.408831 -41.761929 42.541246
Spine -9.226800 -33.557490 -22.357922
Head 25.362393 -9.844977 -6.267091
LeftShoulder -22.671847 40.872575 20.367658
LeftArm 51.612657 -57.710880 -70.079029
LeftForeArm 5.752145 0.000000 -4.760275
LeftHand 14.700912 -0.000000 23.913386
LeftHandThumb1 -26.253704 0.000000 33.147579
RightShoulder -18.178922 -2.632979 -40.838130
RightArm -16.716285 35.172253 23.859145
RightForeArm -7.958819 0.000000 17.961330
RightHand 17.046627 0.000000 -23.581002
RightHandThumb1 -24.326973 -0.000000 -32.862282
LeftUpLeg 11.606994 5.373780 28.912589
LeftLeg 16.785705 -0.000000 -0.000000
LeftFoot 30.793529 26.280482 -10.097121
LeftToeBase 16.231963 -0.000000 -0.000000
RightUpLeg -33.305482 -34.565368 -20.465843
RightLeg 5.916815 -0.000000 -0.000000
RightFoot 46.213954 -24.188958 -4.314092
RightToeBase 14.073584 -0.000000 -0.000000
593
root 1.273572 40.607113 5.417167 -15.664529 -42.059388 42.116650
Spine -8.907028 -32.483502 -22.617023
Head 25.419335 -10.393757 -5.890011
LeftShoulder -23.250502 41.553530 19.598855
LeftArm 49.523562 -56.478179 -68.267226
LeftForeArm 4.963381 0.000000 -4.872505
LeftHand 13.523283 0.000000 23.661444
LeftHandThumb1 -26.253704 0.000000 33.147579
RightShoulder -18.289173 -2.519465 -40.725164
RightArm -16.775788 35.473327 23.372861
RightForeArm -7.570594 -0.000000 18.361225
RightHand 16.972974 -0.000000 -23.369318
RightHandThumb1 -24.326973 -0.000000 -32.862282
LeftUpLeg 11.553566 5.134993 28.547511
LeftLeg 16.286698 -0.000000 -0.000000
LeftFoot 30.563605 26.128037 -11.018741
LeftToeBase 15.348531 -0.000000 -0.000000
RightUpLeg -31.061482 -33.335560 -19.880150
RightLeg 6.497707 -0.000000 -0.000000
RightFoot 45.927362 -24.104267 -3.992042
RightToeBase 13.352759 -0.000000 -0.000000
594
root 0.982746 39.905698 5.402823 -15.896527 -42.378254 41.903264
Spine -8.829503 -31.487083 -22.844939
Head 25.358186 -10.974592 -5.719019
LeftShoulder -23.991234 42.461507 18.833217
LeftArm 49.660412 -56.184065 -69.101289
LeftForeArm 5.275502 -0.000000 -5.076810
LeftHand 14.288034 0.000000 22.938479
LeftHandThumb1 -26.253704 0.000000 33.147579
RightShoulder -18.212564 -2.375569 -40.571540
RightArm -16.773084 36.126632 22.720313
RightForeArm -7.677909 -0.000000 18.489345
RightHand 17.280569 -0.000000 -23.990155
RightHandThumb1 -24.326973 -0.000000 -32.862282
LeftUpLeg 11.403123 5.120122 28.069134
LeftLeg 15.708293 -0.000000 -0.000000
LeftFoot 29.828374 25.760318 -12.159767
LeftToeBase 14.557468 -0.000000 -0.000000
RightUpLeg -29.040117 -31.740657 -19.555303
RightLeg 7.106944 -0.000000 -0.000000
RightFoot 45.640505 -23.968927 -3.676276
RightToeBase 12.802165 -0.000000 -0.000000
595
root 0.708665 39.175970 5.384630 -16.078508 -42.661653 41.783268
Spine -8.847455 -30.589873 -23.061665
Head 25.200295 -11.522946 -5.567302
LeftShoulder -24.642203 43.248764 18.138888
LeftArm 49.324246 -55.881123 -69.471457
LeftForeArm 5.791809 -0.000000 -5.351684
LeftHand 14.120376 -0.000000 23.109798
LeftHandThumb1 -26.253704 0.000000 33.147579
RightShoulder -18.101964 -2.089239 -40.561622
RightArm -16.670518 36.339998 22.275052
RightForeArm -7.669189 -0.000000 18.594634
RightHand 17.292957 -0.000000 -24.258682
RightHandThumb1 -24.326973 -0.000000 -32.862282
LeftUpLeg 11.123816 5.308020 27.586239
LeftLeg 15.114645 -0.000000 -0.000000
LeftFoot 28.738470 25.094268 -13.493050
LeftToeBase 13.507872 -0.000000 -0.000000
RightUpLeg -27.187049 -29.782030 -19.442658
RightLeg 7.772580 -0.000000 -0.000000
RightFoot 45.325606 -23.983861 -3.120378
RightToeBase 12.264554 -0.000000 -0.000000
596
root 0.452268 38.419496 5.358719 -16.070070 -42.913850 41.671507
Spine -9.035281 -29.858100 -23.145778
Head 24.900523 -12.099210 -5.512319
LeftShoulder -25.213429 43.971898 17.485299
LeftArm 48.151076 -55.285961 -68.943066
LeftForeArm 5.523472 -0.000000 -5.512784
LeftHand 11.870819 -0.000000 23.631866
LeftHandThumb1 -26.253704 0.000000 33.147579
RightShoulder -18.071653 -1.916252 -40.528224
RightArm -16.200548 36.395343 22.027372
RightForeArm -7.641700 -0.000000 18.647515
RightHand 17.626356 0.000000 -24.276944
RightHandThumb1 -24.326973 -0.000000 -32.862282
LeftUpLeg 10.590085 5.734871 27.154327
LeftLeg 14.569732 -0.000000 -0.000000
LeftFoot 27.370948 24.200965 -15.109645
LeftToeBase 12.376887 -0.000000 -0.000000
RightUpLeg -25.686545 -27.544109 -19.332684
RightLeg 8.619679 -0.000000 -0.000000
RightFoot 44.642828 -23.968040 -2.652293
RightToeBase 0.438935 -0.000000 -0.000000
597
root 0.210805 37.633430 5.323230 -15.909179 -43.153053 41.547103
Spine -9.337661 -29.220210 -23.137831
Head 24.450307 -12.655605 -5.523757
LeftShoulder -25.872150 44.863867 16.878689
LeftArm 47.821564 -54.848498 -69.369165
LeftForeArm 6.084092 -0.000000 -5.910714
LeftHand 14.905928 -0.000000 23.461689
LeftHandThumb1 -26.253704 0.000000 33.147579
RightShoulder -18.012981 -1.598861 -40.561291
RightArm -15.501061 36.235684 21.869015
RightForeArm -7.906253 -0.000000 18.337167
RightHand 17.207207 -0.000000 -25.729282
RightHandThumb1 -24.326973 -0.000000 -32.862282
LeftUpLeg 9.899418 6.266326 26.788719
LeftLeg 13.991908 -0.000000 -0.000000
LeftFoot 25.873465 23.304507 -17.112517
LeftToeBase 11.503365 -0.000000 -0.000000
RightUpLeg -24.537378 -25.183079 -19.094398
RightLeg 9.825224 -0.000000 -0.000000
RightFoot 40.929600 -24.472411 -1.957537
RightToeBase -21.125755 -0.000000 0.000000
